<?xml version="1.0" encoding="utf-8"?>
<!-- Generator: Adobe Illustrator 18.1.1, SVG Export Plug-In . SVG Version: 6.00 Build 0)  -->
<svg version="1.1" id="Layer_1" xmlns="http://www.w3.org/2000/svg" xmlns:xlink="http://www.w3.org/1999/xlink" x="0px" y="0px"
	 viewBox="-383 145 512 512" enable-background="new -383 145 512 512" xml:space="preserve">
<path id="instagram-icon" d="M-58.8,353.9h95.8v147c0,35.8-29,64.8-64.8,64.8h-198.2c-35.8,0-64.8-29-64.8-64.8v-147h95.4
	c-9.8,13.7-15.5,30.5-15.5,48.6c0,46.3,37.6,83.9,83.9,83.9c46.3,0,83.9-37.6,83.9-83.9C-43.3,384.4-49.1,367.6-58.8,353.9z
	 M36.9,301v42.6H-67.4c-15.2-15.5-36.4-25-59.8-25c-23.4,0-44.6,9.6-59.8,25h-104V301c0-21.9,10.8-41.2,27.4-52.9V318h13.3v-77.1
	c3-1.2,6.1-2.2,9.4-3v80h13.3v-81.7c0.5,0,1,0,1.5,0h7.7V318h13.3v-81.8h177.2C7.9,236.2,36.9,265.2,36.9,301z M7.3,273.7
	c0-5.7-4.7-10.4-10.4-10.4h-35.1c-5.7,0-10.4,4.7-10.4,10.4v35.8c0,5.7,4.7,10.4,10.4,10.4h35.1c5.7,0,10.4-4.7,10.4-10.4L7.3,273.7
	L7.3,273.7z M-191.8,402.5c0-19.4,8.6-36.7,22.1-48.6c4.7-4.2,10.1-7.6,15.9-10.3c8.1-3.7,17.2-5.8,26.7-5.8
	c9.5,0,18.5,2.1,26.7,5.8c5.8,2.6,11.2,6.1,15.9,10.3c13.5,11.9,22.1,29.2,22.1,48.6c0,35.6-29,64.6-64.6,64.6
	C-162.9,467.1-191.8,438.1-191.8,402.5z M-174.8,402.5c0,26.4,21.4,47.8,47.8,47.8s47.8-21.4,47.8-47.8c0-26.4-21.4-47.8-47.8-47.8
	C-153.4,354.7-174.8,376.1-174.8,402.5z"/>
</svg>
