<?xml version="1.0" encoding="utf-8"?>
<!-- Generator: Adobe Illustrator 18.1.1, SVG Export Plug-In . SVG Version: 6.00 Build 0)  -->
<svg version="1.1" id="Layer_1" xmlns="http://www.w3.org/2000/svg" xmlns:xlink="http://www.w3.org/1999/xlink" x="0px" y="0px"
	 viewBox="-383 145 512 512" enable-background="new -383 145 512 512" xml:space="preserve">
<path id="twitter-icon" d="M37.8,298.8c-12.1,5.4-25.2,9-38.8,10.6c14-8.4,24.7-21.6,29.7-37.4c-13.1,7.7-27.5,13.4-42.9,16.4
	c-12.3-13.1-29.9-21.4-49.4-21.4c-43.6,0-75.7,40.7-65.9,83c-56.2-2.8-106-29.7-139.4-70.7c-17.7,30.4-9.2,70.2,20.9,90.3
	c-11.1-0.4-21.5-3.4-30.6-8.5c-0.7,31.3,21.7,60.6,54.2,67.2c-9.5,2.6-19.9,3.2-30.5,1.2c8.6,26.9,33.6,46.4,63.2,47
	c-28.4,22.3-64.2,32.2-100.1,28c29.9,19.2,65.5,30.4,103.7,30.4c125.5,0,196.5-106,192.2-201.1C17.3,324.2,28.7,312.3,37.8,298.8z"
	/>
</svg>
